<svg version="1.1" id="Layer_1" xmlns="http://www.w3.org/2000/svg" xmlns:xlink="http://www.w3.org/1999/xlink" x="0px" y="0px"
	 width="100%" viewBox="0 0 96 96" enable-background="new 0 0 96 96" xml:space="preserve">
<path fill="#000000" opacity="1.000000" stroke="none" 
	d="
M61.000000,97.000000 
	C40.666672,97.000000 20.833340,97.000000 1.000008,97.000000 
	C1.000005,65.000008 1.000005,33.000019 1.000003,1.000021 
	C32.999985,1.000014 64.999969,1.000014 96.999969,1.000007 
	C96.999977,32.999981 96.999977,64.999962 96.999985,96.999969 
	C85.166664,97.000000 73.333336,97.000000 61.000000,97.000000 
M12.496786,72.994789 
	C14.255594,75.397934 15.864369,75.016487 17.634306,72.900360 
	C21.020082,68.852356 24.520996,64.900658 27.983419,60.898251 
	C31.171635,63.743057 33.000702,65.375107 35.378658,67.496933 
	C42.185730,60.438316 48.836338,53.541946 55.620770,46.506813 
	C58.133583,48.713181 60.074596,50.417477 63.203804,53.165066 
	C69.925705,45.894253 76.431961,38.856701 82.917183,31.841900 
	C85.025696,33.582291 86.723061,34.983318 88.537552,36.481026 
	C88.537552,30.371613 88.537552,24.815615 88.537552,19.312063 
	C82.679024,19.312063 77.287384,19.312063 71.227592,19.312063 
	C73.123215,21.513205 74.579903,23.204678 75.487968,24.259098 
	C70.619164,29.208689 66.023438,33.880665 61.347984,38.633694 
	C59.782784,37.234184 57.954941,35.599831 55.423027,33.335945 
	C48.612694,40.429939 41.977604,47.341389 35.220467,54.379967 
	C32.826851,52.255775 30.896557,50.542755 29.576303,49.371109 
	C22.619904,56.288513 16.049755,62.821827 9.295931,69.537788 
	C10.020100,70.330772 11.010651,71.415459 12.496786,72.994789 
M11.952771,15.568883 
	C6.800750,21.828302 7.705308,31.026884 14.015000,36.540031 
	C18.796291,40.717724 29.193434,39.799744 33.693081,34.802628 
	C38.470116,29.497458 38.235401,19.673481 33.212936,14.706093 
	C27.853338,9.405270 18.082985,9.548776 11.952771,15.568883 
M82.703049,86.951050 
	C84.639549,86.951050 86.576057,86.951050 88.697510,86.951050 
	C88.697510,72.102592 88.697510,57.769623 88.697510,43.389904 
	C86.016899,43.389904 83.657204,43.389904 81.001213,43.389904 
	C81.001213,56.861301 80.979851,69.947586 81.035721,83.033539 
	C81.041046,84.281548 81.528923,85.527496 82.703049,86.951050 
M76.999954,60.647675 
	C76.999954,58.878220 76.999954,57.108761 76.999954,55.259995 
	C74.053032,55.259995 71.792801,55.259995 69.348175,55.259995 
	C69.348175,65.903107 69.348175,76.286606 69.348175,86.733292 
	C71.963554,86.733292 74.223648,86.733292 77.000000,86.733292 
	C77.000000,78.189339 77.000000,69.900604 76.999954,60.647675 
M65.000000,77.456406 
	C65.000000,72.035675 65.000000,66.614944 65.000000,61.328163 
	C61.916077,61.328163 59.658806,61.328163 57.411789,61.328163 
	C57.411789,70.035545 57.411789,78.411621 57.411789,86.668816 
	C60.084278,86.668816 62.340862,86.668816 65.000000,86.668816 
	C65.000000,83.709938 65.000000,81.074974 65.000000,77.456406 
M45.038574,66.849144 
	C45.038574,73.410751 45.038574,79.972359 45.038574,86.640091 
	C47.935577,86.640091 50.292164,86.640091 52.621868,86.640091 
	C52.621868,79.270149 52.621868,72.263000 52.621868,64.594246 
	C49.828087,65.095047 47.505207,65.511436 45.038574,66.849144 
M33.000305,82.362991 
	C33.098930,83.791031 33.197559,85.219070 33.293186,86.603668 
	C36.017799,86.603668 38.369736,86.603668 40.573517,86.603668 
	C40.573517,81.866531 40.573517,77.530273 40.573517,73.311005 
	C37.907612,73.311005 35.671829,73.311005 33.000050,73.311005 
	C33.000050,76.213455 33.000050,78.813156 33.000305,82.362991 
M21.002266,83.450287 
	C21.498926,90.323601 25.999819,85.800003 28.712383,86.800407 
	C28.712383,83.939812 28.712383,81.700729 28.712383,78.873245 
	C25.866364,80.288971 21.165239,75.953621 21.002266,83.450287 
M10.808014,86.965279 
	C12.286218,86.962158 13.877412,87.286621 15.199416,86.830635 
	C15.968308,86.565445 16.305447,85.048492 16.836859,84.094788 
	C14.710892,83.759232 12.584925,83.423683 10.458959,83.088120 
	C10.282914,84.337921 10.106869,85.587730 10.808014,86.965279 
z"/>
<path fill="#388E3C" opacity="1.000000" stroke="none" 
	d="
M12.248994,72.747467 
	C11.010651,71.415459 10.020100,70.330772 9.295931,69.537788 
	C16.049755,62.821827 22.619904,56.288513 29.576303,49.371109 
	C30.896557,50.542755 32.826851,52.255775 35.220467,54.379967 
	C41.977604,47.341389 48.612694,40.429939 55.423027,33.335945 
	C57.954941,35.599831 59.782784,37.234184 61.347984,38.633694 
	C66.023438,33.880665 70.619164,29.208689 75.487968,24.259098 
	C74.579903,23.204678 73.123215,21.513205 71.227592,19.312063 
	C77.287384,19.312063 82.679024,19.312063 88.537552,19.312063 
	C88.537552,24.815615 88.537552,30.371613 88.537552,36.481026 
	C86.723061,34.983318 85.025696,33.582291 82.917183,31.841900 
	C76.431961,38.856701 69.925705,45.894253 63.203804,53.165066 
	C60.074596,50.417477 58.133583,48.713181 55.620770,46.506813 
	C48.836338,53.541946 42.185730,60.438316 35.378658,67.496933 
	C33.000702,65.375107 31.171635,63.743057 27.983419,60.898251 
	C24.520996,64.900658 21.020082,68.852356 17.634306,72.900360 
	C15.864369,75.016487 14.255594,75.397934 12.248994,72.747467 
z"/>
<path fill="#FFC108" opacity="1.000000" stroke="none" 
	d="
M12.219208,15.289709 
	C18.082985,9.548776 27.853338,9.405270 33.212936,14.706093 
	C38.235401,19.673481 38.470116,29.497458 33.693081,34.802628 
	C29.193434,39.799744 18.796291,40.717724 14.015000,36.540031 
	C7.705308,31.026884 6.800750,21.828302 12.219208,15.289709 
M25.018881,28.293098 
	C25.018881,24.703615 25.018881,21.114134 25.018881,16.720007 
	C22.117785,18.090490 19.993610,19.093954 17.869434,20.097420 
	C18.021875,20.473810 18.174316,20.850201 18.326757,21.226591 
	C19.488747,21.346018 20.650736,21.465445 22.428532,21.648165 
	C22.428532,25.592199 22.428532,29.233776 22.428532,32.875355 
	C22.947031,32.943275 23.465532,33.011192 23.984032,33.079113 
	C24.328701,31.791672 24.673370,30.504230 25.018881,28.293098 
z"/>
<path fill="#4CAF50" opacity="1.000000" stroke="none" 
	d="
M82.247910,86.862732 
	C81.528923,85.527496 81.041046,84.281548 81.035721,83.033539 
	C80.979851,69.947586 81.001213,56.861301 81.001213,43.389904 
	C83.657204,43.389904 86.016899,43.389904 88.697510,43.389904 
	C88.697510,57.769623 88.697510,72.102592 88.697510,86.951050 
	C86.576057,86.951050 84.639549,86.951050 82.247910,86.862732 
z"/>
<path fill="#4CAF50" opacity="1.000000" stroke="none" 
	d="
M76.999977,61.129768 
	C77.000000,69.900604 77.000000,78.189339 77.000000,86.733292 
	C74.223648,86.733292 71.963554,86.733292 69.348175,86.733292 
	C69.348175,76.286606 69.348175,65.903107 69.348175,55.259995 
	C71.792801,55.259995 74.053032,55.259995 76.999954,55.259995 
	C76.999954,57.108761 76.999954,58.878220 76.999977,61.129768 
z"/>
<path fill="#4CAF50" opacity="1.000000" stroke="none" 
	d="
M65.000000,77.948212 
	C65.000000,81.074974 65.000000,83.709938 65.000000,86.668816 
	C62.340862,86.668816 60.084278,86.668816 57.411789,86.668816 
	C57.411789,78.411621 57.411789,70.035545 57.411789,61.328163 
	C59.658806,61.328163 61.916077,61.328163 65.000000,61.328163 
	C65.000000,66.614944 65.000000,72.035675 65.000000,77.948212 
z"/>
<path fill="#4CAF50" opacity="1.000000" stroke="none" 
	d="
M45.110451,66.388481 
	C47.505207,65.511436 49.828087,65.095047 52.621868,64.594246 
	C52.621868,72.263000 52.621868,79.270149 52.621868,86.640091 
	C50.292164,86.640091 47.935577,86.640091 45.038574,86.640091 
	C45.038574,79.972359 45.038574,73.410751 45.110451,66.388481 
z"/>
<path fill="#4CAF50" opacity="1.000000" stroke="none" 
	d="
M33.000175,81.887924 
	C33.000050,78.813156 33.000050,76.213455 33.000050,73.311005 
	C35.671829,73.311005 37.907612,73.311005 40.573517,73.311005 
	C40.573517,77.530273 40.573517,81.866531 40.573517,86.603668 
	C38.369736,86.603668 36.017799,86.603668 33.293186,86.603668 
	C33.197559,85.219070 33.098930,83.791031 33.000175,81.887924 
z"/>
<path fill="#4CAF50" opacity="1.000000" stroke="none" 
	d="
M21.002258,83.000351 
	C21.165239,75.953621 25.866364,80.288971 28.712383,78.873245 
	C28.712383,81.700729 28.712383,83.939812 28.712383,86.800407 
	C25.999819,85.800003 21.498926,90.323601 21.002258,83.000351 
z"/>
<path fill="#4CAF50" opacity="1.000000" stroke="none" 
	d="
M10.369419,86.901405 
	C10.106869,85.587730 10.282914,84.337921 10.458958,83.088120 
	C12.584925,83.423683 14.710892,83.759232 16.836859,84.094788 
	C16.305447,85.048492 15.968308,86.565445 15.199416,86.830635 
	C13.877412,87.286621 12.286218,86.962158 10.369419,86.901405 
z"/>
<path fill="#FFF5D7" opacity="1.000000" stroke="none" 
	d="
M25.018459,28.754944 
	C24.673370,30.504230 24.328701,31.791672 23.984032,33.079113 
	C23.465532,33.011192 22.947031,32.943275 22.428532,32.875355 
	C22.428532,29.233776 22.428532,25.592199 22.428532,21.648165 
	C20.650736,21.465445 19.488747,21.346018 18.326757,21.226591 
	C18.174316,20.850201 18.021875,20.473810 17.869434,20.097420 
	C19.993610,19.093954 22.117785,18.090490 25.018881,16.720007 
	C25.018881,21.114134 25.018881,24.703615 25.018459,28.754944 
z"/>
</svg>