<svg version="1.1" id="Layer_1" xmlns="http://www.w3.org/2000/svg" xmlns:xlink="http://www.w3.org/1999/xlink" x="0px" y="0px"
	 width="100%" viewBox="0 0 512 512" enable-background="new 0 0 512 512" xml:space="preserve">
<path fill="#000000" opacity="1.000000" stroke="none" 
	d="
M1.000000,292.000000 
	C1.000000,263.312439 1.000000,234.624878 1.296334,205.208298 
	C3.424101,206.767929 5.376676,208.970810 7.067523,211.358994 
	C18.989189,228.197296 30.857035,245.073685 42.809120,262.033081 
	C44.337166,261.076569 45.760723,260.277313 47.087830,259.341278 
	C80.074173,236.075760 113.018539,212.750565 146.039734,189.534653 
	C167.248962,174.623291 188.714417,160.070740 209.724960,144.886795 
	C214.336121,141.554398 216.396683,142.672546 219.760178,146.108566 
	C246.424225,173.347778 273.257355,200.421509 300.048828,227.535919 
	C301.295990,228.798111 302.640320,229.964264 304.047577,231.276001 
	C356.615112,187.599899 408.852264,144.198288 461.342712,100.586220 
	C469.534515,108.866158 477.331482,116.849968 485.243927,124.717682 
	C494.443115,133.864899 503.743530,142.910370 513.000000,152.000000 
	C513.000000,165.020889 513.000000,178.041794 512.724548,191.807953 
	C496.601654,176.837585 480.729004,161.147110 464.940491,145.372498 
	C463.083038,143.516693 461.687805,141.198273 459.949097,138.925323 
	C447.480682,149.456924 436.218811,159.064621 424.850464,168.544662 
	C413.733429,177.815155 402.612671,187.088196 391.257202,196.061050 
	C388.357452,198.352356 387.953461,200.811676 387.955139,204.062683 
	C388.008942,307.041779 387.999695,410.020874 388.000000,513.000000 
	C365.645782,513.000000 343.291534,513.000000 320.470276,512.531372 
	C320.003235,427.183899 320.003235,342.305115 320.003235,257.426361 
	C319.563446,257.173157 319.123627,256.919983 318.683838,256.666779 
	C313.162476,261.096100 307.641113,265.525421 300.658325,271.127106 
	C299.675629,269.470856 298.987823,267.633331 297.744171,266.323669 
	C288.352661,256.433563 278.941284,246.558975 269.362915,236.850449 
	C257.194946,224.517075 244.182724,212.938644 232.821564,199.912216 
	C223.949539,189.739761 214.287308,185.019348 200.864456,186.841492 
	C194.107254,187.758789 193.997589,187.011383 193.997543,194.131027 
	C193.996979,300.420685 193.998764,406.710358 194.000000,513.000000 
	C171.645767,513.000000 149.291550,513.000000 126.468605,512.531372 
	C125.999489,441.120758 126.001549,370.178802 125.994888,299.236877 
	C125.994209,292.033295 125.969818,292.006378 118.903481,292.004700 
	C79.602318,291.995331 40.301159,292.000061 1.000000,292.000000 
z"/>
<path fill="#37B34A" opacity="1.000000" stroke="none" 
	d="
M513.000000,151.531342 
	C503.743530,142.910370 494.443115,133.864899 485.243927,124.717682 
	C477.331482,116.849968 469.534515,108.866158 461.342712,100.586220 
	C408.852264,144.198288 356.615112,187.599899 304.047577,231.276001 
	C302.640320,229.964264 301.295990,228.798111 300.048828,227.535919 
	C273.257355,200.421509 246.424225,173.347778 219.760178,146.108566 
	C216.396683,142.672546 214.336121,141.554398 209.724960,144.886795 
	C188.714417,160.070740 167.248962,174.623291 146.039734,189.534653 
	C113.018539,212.750565 80.074173,236.075760 47.087830,259.341278 
	C45.760723,260.277313 44.337166,261.076569 42.809120,262.033081 
	C30.857035,245.073685 18.989189,228.197296 7.067523,211.358994 
	C5.376676,208.970810 3.424101,206.767929 1.296334,204.739639 
	C1.000000,203.611115 1.000000,202.222214 1.356495,200.401566 
	C14.628717,190.991928 27.584223,182.070633 40.452141,173.024734 
	C69.840202,152.365448 99.168999,131.621857 128.555954,110.960983 
	C140.496750,102.565849 152.567673,94.355804 164.505768,85.956886 
	C184.200333,72.100983 203.835098,58.160065 223.830658,44.017628 
	C252.255203,72.878304 280.565338,101.622833 308.923187,130.415787 
	C342.385773,102.598862 375.242432,75.285614 408.556305,47.592289 
	C403.433136,42.631149 398.573456,38.074051 393.880920,33.350857 
	C383.210327,22.610579 372.621857,11.788704 362.000000,1.000002 
	C412.260345,1.000000 462.520660,1.000000 513.000000,1.000000 
	C513.000000,51.020679 513.000000,101.041679 513.000000,151.531342 
z"/>
<path fill="#37B34A" opacity="1.000000" stroke="none" 
	d="
M388.468658,513.000000 
	C387.999695,410.020874 388.008942,307.041779 387.955139,204.062683 
	C387.953461,200.811676 388.357452,198.352356 391.257202,196.061050 
	C402.612671,187.088196 413.733429,177.815155 424.850464,168.544662 
	C436.218811,159.064621 447.480682,149.456924 459.949097,138.925323 
	C461.687805,141.198273 463.083038,143.516693 464.940491,145.372498 
	C480.729004,161.147110 496.601654,176.837585 512.724548,192.276611 
	C513.000000,298.894958 513.000000,405.789917 513.000000,513.000000 
	C471.646301,513.000000 430.291809,513.000000 388.468658,513.000000 
z"/>
<path fill="#000000" opacity="1.000000" stroke="none" 
	d="
M361.531342,1.000002 
	C372.621857,11.788704 383.210327,22.610579 393.880920,33.350857 
	C398.573456,38.074051 403.433136,42.631149 408.556305,47.592289 
	C375.242432,75.285614 342.385773,102.598862 308.923187,130.415787 
	C280.565338,101.622833 252.255203,72.878304 223.830658,44.017628 
	C203.835098,58.160065 184.200333,72.100983 164.505768,85.956886 
	C152.567673,94.355804 140.496750,102.565849 128.555954,110.960983 
	C99.168999,131.621857 69.840202,152.365448 40.452141,173.024734 
	C27.584223,182.070633 14.628717,190.991928 1.356495,199.984894 
	C1.000000,133.718506 1.000000,67.437019 1.000000,1.000000 
	C121.020851,1.000000 241.041763,1.000000 361.531342,1.000002 
z"/>
<path fill="#278236" opacity="1.000000" stroke="none" 
	d="
M194.468658,513.000000 
	C193.998764,406.710358 193.996979,300.420685 193.997543,194.131027 
	C193.997589,187.011383 194.107254,187.758789 200.864456,186.841492 
	C214.287308,185.019348 223.949539,189.739761 232.821564,199.912216 
	C244.182724,212.938644 257.194946,224.517075 269.362915,236.850449 
	C278.941284,246.558975 288.352661,256.433563 297.744171,266.323669 
	C298.987823,267.633331 299.675629,269.470856 300.658325,271.127106 
	C307.641113,265.525421 313.162476,261.096100 318.683838,256.666779 
	C319.123627,256.919983 319.563446,257.173157 320.003235,257.426361 
	C320.003235,342.305115 320.003235,427.183899 320.001617,512.531372 
	C278.312439,513.000000 236.624878,513.000000 194.468658,513.000000 
z"/>
<path fill="#024D41" opacity="1.000000" stroke="none" 
	d="
M1.000000,292.468658 
	C40.301159,292.000061 79.602318,291.995331 118.903481,292.004700 
	C125.969818,292.006378 125.994209,292.033295 125.994888,299.236877 
	C126.001549,370.178802 125.999489,441.120758 125.999947,512.531372 
	C84.386070,513.000000 42.772148,513.000000 1.000000,513.000000 
	C1.000000,439.645844 1.000000,366.291595 1.000000,292.468658 
z"/>
</svg>