<svg version="1.1" id="Layer_1" xmlns="http://www.w3.org/2000/svg" xmlns:xlink="http://www.w3.org/1999/xlink" x="0px" y="0px"
	 width="100%" viewBox="0 0 512 512" enable-background="new 0 0 512 512" xml:space="preserve">
<path fill="#000000" opacity="1.000000" stroke="none" 
	d="
M388.000000,513.000000 
	C365.645782,513.000000 343.291534,513.000000 320.469116,512.531372 
	C320.000916,403.856079 320.000916,295.649445 320.000916,187.001465 
	C312.565674,187.001465 305.761139,186.807358 298.979828,187.119080 
	C296.930054,187.213287 294.473358,188.222473 293.006470,189.642487 
	C283.553345,198.793488 274.567871,208.436615 264.959839,217.416306 
	C251.960739,229.565323 238.539963,241.263107 224.562592,253.816864 
	C216.578613,248.224823 205.689056,240.597702 194.000000,232.410599 
	C194.000000,326.580872 194.000000,419.790436 194.000000,513.000000 
	C171.645767,513.000000 149.291550,513.000000 126.468735,512.531372 
	C126.000153,404.662628 125.969437,297.262543 126.121147,189.862686 
	C126.126770,185.883286 124.760292,183.435272 121.836487,181.377701 
	C103.676010,168.597748 85.542160,155.779541 67.332077,143.070618 
	C45.256260,127.663773 23.113688,112.352577 1.000000,97.000000 
	C1.000000,85.979103 1.000000,74.958214 1.247169,63.132030 
	C2.253991,62.658035 3.097900,62.869892 3.761155,63.337818 
	C31.113302,82.634758 58.428398,101.984261 85.793373,121.262962 
	C110.355179,138.566803 134.988739,155.768784 159.553284,173.068726 
	C173.440247,182.848831 187.213730,192.790253 201.112732,202.553070 
	C208.696915,207.880295 216.436356,212.986450 224.169266,218.235382 
	C252.645676,189.273651 280.880707,160.557404 309.004303,131.954498 
	C342.234467,159.583908 375.106750,186.915741 409.377319,215.410202 
	C393.467499,231.287338 378.122833,246.600433 362.691528,262.000000 
	C412.540955,262.000000 462.770477,262.000000 513.000000,262.000000 
	C513.000000,271.687561 513.000000,281.375122 512.531372,291.531433 
	C470.860718,292.000183 429.658752,292.000183 388.000000,292.000183 
	C388.000000,366.236694 388.000000,439.618347 388.000000,513.000000 
z"/>
<path fill="#EC1C24" opacity="1.000000" stroke="none" 
	d="
M513.000000,261.531342 
	C462.770477,262.000000 412.540955,262.000000 362.691528,262.000000 
	C378.122833,246.600433 393.467499,231.287338 409.377319,215.410202 
	C375.106750,186.915741 342.234467,159.583908 309.004303,131.954498 
	C280.880707,160.557404 252.645676,189.273651 224.169266,218.235382 
	C216.436356,212.986450 208.696915,207.880295 201.112732,202.553070 
	C187.213730,192.790253 173.440247,182.848831 159.553284,173.068726 
	C134.988739,155.768784 110.355179,138.566803 85.793373,121.262962 
	C58.428398,101.984261 31.113302,82.634758 3.761155,63.337818 
	C3.097900,62.869892 2.253991,62.658035 1.247169,62.663372 
	C1.000000,61.611111 1.000000,60.222221 1.252168,58.745632 
	C1.772297,58.462780 2.116329,58.321308 2.297343,58.064800 
	C13.455348,42.253193 24.651655,26.468077 35.699928,10.580035 
	C37.772575,7.599449 39.248634,4.204002 41.000000,1.000000 
	C42.388889,1.000000 43.777779,1.000000 45.253212,1.250563 
	C51.391529,5.939515 57.364513,10.490304 63.508457,14.797214 
	C93.182510,35.598740 122.920013,56.309723 152.600342,77.102303 
	C173.437485,91.699776 194.218964,106.376701 215.163483,121.115379 
	C244.783752,90.962463 274.314026,60.901142 303.856171,30.827734 
	C356.326843,74.425156 408.531250,117.801346 461.060059,161.447083 
	C468.578674,153.907150 475.806488,146.578888 483.123352,139.340698 
	C493.046448,129.524323 503.037872,119.776962 513.000000,110.000000 
	C513.000000,160.354233 513.000000,210.708450 513.000000,261.531342 
z"/>
<path fill="#EC1C24" opacity="1.000000" stroke="none" 
	d="
M1.000000,97.468658 
	C23.113688,112.352577 45.256260,127.663773 67.332077,143.070618 
	C85.542160,155.779541 103.676010,168.597748 121.836487,181.377701 
	C124.760292,183.435272 126.126770,185.883286 126.121147,189.862686 
	C125.969437,297.262543 126.000153,404.662628 126.000076,512.531372 
	C84.367050,513.000000 42.734100,513.000000 1.000000,513.000000 
	C1.000000,374.645782 1.000000,236.291550 1.000000,97.468658 
z"/>
<path fill="#000000" opacity="1.000000" stroke="none" 
	d="
M513.000000,109.531342 
	C503.037872,119.776962 493.046448,129.524323 483.123352,139.340698 
	C475.806488,146.578888 468.578674,153.907150 461.060059,161.447083 
	C408.531250,117.801346 356.326843,74.425156 303.856171,30.827734 
	C274.314026,60.901142 244.783752,90.962463 215.163483,121.115379 
	C194.218964,106.376701 173.437485,91.699776 152.600342,77.102303 
	C122.920013,56.309723 93.182510,35.598740 63.508457,14.797214 
	C57.364513,10.490304 51.391529,5.939515 45.669876,1.250563 
	C201.548340,1.000000 357.096680,1.000000 513.000000,1.000000 
	C513.000000,37.020119 513.000000,73.041397 513.000000,109.531342 
z"/>
<path fill="#C41F2F" opacity="1.000000" stroke="none" 
	d="
M194.468658,513.000000 
	C194.000000,419.790436 194.000000,326.580872 194.000000,232.410599 
	C205.689056,240.597702 216.578613,248.224823 224.562592,253.816864 
	C238.539963,241.263107 251.960739,229.565323 264.959839,217.416306 
	C274.567871,208.436615 283.553345,198.793488 293.006470,189.642487 
	C294.473358,188.222473 296.930054,187.213287 298.979828,187.119080 
	C305.761139,186.807358 312.565674,187.001465 320.000916,187.001465 
	C320.000916,295.649445 320.000916,403.856079 320.000458,512.531372 
	C278.312439,513.000000 236.624878,513.000000 194.468658,513.000000 
z"/>
<path fill="#911723" opacity="1.000000" stroke="none" 
	d="
M388.468658,513.000000 
	C388.000000,439.618347 388.000000,366.236694 388.000000,292.000183 
	C429.658752,292.000183 470.860718,292.000183 512.531372,292.000092 
	C513.000000,365.573425 513.000000,439.146851 513.000000,513.000000 
	C471.646179,513.000000 430.291748,513.000000 388.468658,513.000000 
z"/>
<path fill="#000000" opacity="1.000000" stroke="none" 
	d="
M40.531342,1.000000 
	C39.248634,4.204002 37.772575,7.599449 35.699928,10.580035 
	C24.651655,26.468077 13.455348,42.253193 2.297343,58.064800 
	C2.116329,58.321308 1.772297,58.462780 1.252168,58.328964 
	C1.000000,39.086105 1.000000,20.172209 1.000000,1.000000 
	C14.019756,1.000000 27.041220,1.000000 40.531342,1.000000 
z"/>
</svg>